<svg width="436" height="926" viewBox="0 0 436 926" fill="none" xmlns="http://www.w3.org/2000/svg">
<rect width="436" height="926" fill="#C29A9A"/>
<rect width="428" height="926" transform="translate(4)" fill="white"/>
<g filter="url(#filter0_d_0_1)">
<rect x="4" width="428" height="64" fill="white"/>
</g>
<path d="M29.8945 34.9492L32.707 30.3203H35.2383L31.0898 36.5898L35.3672 43H32.8594L29.9297 38.2539L27 43H24.4805L28.7578 36.5898L24.6094 30.3203H27.1172L29.8945 34.9492ZM42.5742 43.2344C40.8555 43.2344 39.457 42.6719 38.3789 41.5469C37.3008 40.4141 36.7617 38.9023 36.7617 37.0117V36.6133C36.7617 35.3555 37 34.2344 37.4766 33.25C37.9609 32.2578 38.6328 31.4844 39.4922 30.9297C40.3594 30.3672 41.2969 30.0859 42.3047 30.0859C43.9531 30.0859 45.2344 30.6289 46.1484 31.7148C47.0625 32.8008 47.5195 34.3555 47.5195 36.3789V37.2812H38.9297C38.9609 38.5312 39.3242 39.543 40.0195 40.3164C40.7227 41.082 41.6133 41.4648 42.6914 41.4648C43.457 41.4648 44.1055 41.3086 44.6367 40.9961C45.168 40.6836 45.6328 40.2695 46.0312 39.7539L47.3555 40.7852C46.293 42.418 44.6992 43.2344 42.5742 43.2344ZM42.3047 31.8672C41.4297 31.8672 40.6953 32.1875 40.1016 32.8281C39.5078 33.4609 39.1406 34.3516 39 35.5H45.3516V35.3359C45.2891 34.2344 44.9922 33.3828 44.4609 32.7812C43.9297 32.1719 43.2109 31.8672 42.3047 31.8672ZM55.3008 43.2344C53.582 43.2344 52.1836 42.6719 51.1055 41.5469C50.0273 40.4141 49.4883 38.9023 49.4883 37.0117V36.6133C49.4883 35.3555 49.7266 34.2344 50.2031 33.25C50.6875 32.2578 51.3594 31.4844 52.2188 30.9297C53.0859 30.3672 54.0234 30.0859 55.0312 30.0859C56.6797 30.0859 57.9609 30.6289 58.875 31.7148C59.7891 32.8008 60.2461 34.3555 60.2461 36.3789V37.2812H51.6562C51.6875 38.5312 52.0508 39.543 52.7461 40.3164C53.4492 41.082 54.3398 41.4648 55.418 41.4648C56.1836 41.4648 56.832 41.3086 57.3633 40.9961C57.8945 40.6836 58.3594 40.2695 58.7578 39.7539L60.082 40.7852C59.0195 42.418 57.4258 43.2344 55.3008 43.2344ZM55.0312 31.8672C54.1562 31.8672 53.4219 32.1875 52.8281 32.8281C52.2344 33.4609 51.8672 34.3516 51.7266 35.5H58.0781V35.3359C58.0156 34.2344 57.7188 33.3828 57.1875 32.7812C56.6562 32.1719 55.9375 31.8672 55.0312 31.8672ZM70.1484 39.6367C70.1484 39.0508 69.9258 38.5977 69.4805 38.2773C69.043 37.9492 68.2734 37.668 67.1719 37.4336C66.0781 37.1992 65.207 36.918 64.5586 36.5898C63.918 36.2617 63.4414 35.8711 63.1289 35.418C62.8242 34.9648 62.6719 34.4258 62.6719 33.8008C62.6719 32.7617 63.1094 31.8828 63.9844 31.1641C64.8672 30.4453 65.9922 30.0859 67.3594 30.0859C68.7969 30.0859 69.9609 30.457 70.8516 31.1992C71.75 31.9414 72.1992 32.8906 72.1992 34.0469H70.0195C70.0195 33.4531 69.7656 32.9414 69.2578 32.5117C68.7578 32.082 68.125 31.8672 67.3594 31.8672C66.5703 31.8672 65.9531 32.0391 65.5078 32.3828C65.0625 32.7266 64.8398 33.1758 64.8398 33.7305C64.8398 34.2539 65.0469 34.6484 65.4609 34.9141C65.875 35.1797 66.6211 35.4336 67.6992 35.6758C68.7852 35.918 69.6641 36.207 70.3359 36.543C71.0078 36.8789 71.5039 37.2852 71.8242 37.7617C72.1523 38.2305 72.3164 38.8047 72.3164 39.4844C72.3164 40.6172 71.8633 41.5273 70.957 42.2148C70.0508 42.8945 68.875 43.2344 67.4297 43.2344C66.4141 43.2344 65.5156 43.0547 64.7344 42.6953C63.9531 42.3359 63.3398 41.8359 62.8945 41.1953C62.457 40.5469 62.2383 39.8477 62.2383 39.0977H64.4062C64.4453 39.8242 64.7344 40.4023 65.2734 40.832C65.8203 41.2539 66.5391 41.4648 67.4297 41.4648C68.25 41.4648 68.9062 41.3008 69.3984 40.9727C69.8984 40.6367 70.1484 40.1914 70.1484 39.6367ZM77.3086 31.8555C78.2695 30.6758 79.5195 30.0859 81.0586 30.0859C83.7383 30.0859 85.0898 31.5977 85.1133 34.6211V43H82.9453V34.6094C82.9375 33.6953 82.7266 33.0195 82.3125 32.582C81.9062 32.1445 81.2695 31.9258 80.4023 31.9258C79.6992 31.9258 79.082 32.1133 78.5508 32.4883C78.0195 32.8633 77.6055 33.3555 77.3086 33.9648V43H75.1406V25H77.3086V31.8555ZM96.1875 43C96.0625 42.75 95.9609 42.3047 95.8828 41.6641C94.875 42.7109 93.6719 43.2344 92.2734 43.2344C91.0234 43.2344 89.9961 42.8828 89.1914 42.1797C88.3945 41.4688 87.9961 40.5703 87.9961 39.4844C87.9961 38.1641 88.4961 37.1406 89.4961 36.4141C90.5039 35.6797 91.918 35.3125 93.7383 35.3125H95.8477V34.3164C95.8477 33.5586 95.6211 32.957 95.168 32.5117C94.7148 32.0586 94.0469 31.832 93.1641 31.832C92.3906 31.832 91.7422 32.0273 91.2188 32.418C90.6953 32.8086 90.4336 33.2812 90.4336 33.8359H88.2539C88.2539 33.2031 88.4766 32.5938 88.9219 32.0078C89.375 31.4141 89.9844 30.9453 90.75 30.6016C91.5234 30.2578 92.3711 30.0859 93.293 30.0859C94.7539 30.0859 95.8984 30.4531 96.7266 31.1875C97.5547 31.9141 97.9844 32.918 98.0156 34.1992V40.0352C98.0156 41.1992 98.1641 42.125 98.4609 42.8125V43H96.1875ZM92.5898 41.3477C93.2695 41.3477 93.9141 41.1719 94.5234 40.8203C95.1328 40.4688 95.5742 40.0117 95.8477 39.4492V36.8477H94.1484C91.4922 36.8477 90.1641 37.625 90.1641 39.1797C90.1641 39.8594 90.3906 40.3906 90.8438 40.7734C91.2969 41.1562 91.8789 41.3477 92.5898 41.3477ZM103.465 30.3203L103.535 31.9141C104.504 30.6953 105.77 30.0859 107.332 30.0859C110.012 30.0859 111.363 31.5977 111.387 34.6211V43H109.219V34.6094C109.211 33.6953 109 33.0195 108.586 32.582C108.18 32.1445 107.543 31.9258 106.676 31.9258C105.973 31.9258 105.355 32.1133 104.824 32.4883C104.293 32.8633 103.879 33.3555 103.582 33.9648V43H101.414V30.3203H103.465ZM116.707 30.3203L116.777 31.9141C117.746 30.6953 119.012 30.0859 120.574 30.0859C123.254 30.0859 124.605 31.5977 124.629 34.6211V43H122.461V34.6094C122.453 33.6953 122.242 33.0195 121.828 32.582C121.422 32.1445 120.785 31.9258 119.918 31.9258C119.215 31.9258 118.598 32.1133 118.066 32.4883C117.535 32.8633 117.121 33.3555 116.824 33.9648V43H114.656V30.3203H116.707ZM136.793 27.25V30.3203H139.16V31.9961H136.793V39.8594C136.793 40.3672 136.898 40.75 137.109 41.0078C137.32 41.2578 137.68 41.3828 138.188 41.3828C138.438 41.3828 138.781 41.3359 139.219 41.2422V43C138.648 43.1562 138.094 43.2344 137.555 43.2344C136.586 43.2344 135.855 42.9414 135.363 42.3555C134.871 41.7695 134.625 40.9375 134.625 39.8594V31.9961H132.316V30.3203H134.625V27.25H136.793ZM146.965 43.2344C145.246 43.2344 143.848 42.6719 142.77 41.5469C141.691 40.4141 141.152 38.9023 141.152 37.0117V36.6133C141.152 35.3555 141.391 34.2344 141.867 33.25C142.352 32.2578 143.023 31.4844 143.883 30.9297C144.75 30.3672 145.688 30.0859 146.695 30.0859C148.344 30.0859 149.625 30.6289 150.539 31.7148C151.453 32.8008 151.91 34.3555 151.91 36.3789V37.2812H143.32C143.352 38.5312 143.715 39.543 144.41 40.3164C145.113 41.082 146.004 41.4648 147.082 41.4648C147.848 41.4648 148.496 41.3086 149.027 40.9961C149.559 40.6836 150.023 40.2695 150.422 39.7539L151.746 40.7852C150.684 42.418 149.09 43.2344 146.965 43.2344ZM146.695 31.8672C145.82 31.8672 145.086 32.1875 144.492 32.8281C143.898 33.4609 143.531 34.3516 143.391 35.5H149.742V35.3359C149.68 34.2344 149.383 33.3828 148.852 32.7812C148.32 32.1719 147.602 31.8672 146.695 31.8672ZM159.691 43.2344C157.973 43.2344 156.574 42.6719 155.496 41.5469C154.418 40.4141 153.879 38.9023 153.879 37.0117V36.6133C153.879 35.3555 154.117 34.2344 154.594 33.25C155.078 32.2578 155.75 31.4844 156.609 30.9297C157.477 30.3672 158.414 30.0859 159.422 30.0859C161.07 30.0859 162.352 30.6289 163.266 31.7148C164.18 32.8008 164.637 34.3555 164.637 36.3789V37.2812H156.047C156.078 38.5312 156.441 39.543 157.137 40.3164C157.84 41.082 158.73 41.4648 159.809 41.4648C160.574 41.4648 161.223 41.3086 161.754 40.9961C162.285 40.6836 162.75 40.2695 163.148 39.7539L164.473 40.7852C163.41 42.418 161.816 43.2344 159.691 43.2344ZM159.422 31.8672C158.547 31.8672 157.812 32.1875 157.219 32.8281C156.625 33.4609 156.258 34.3516 156.117 35.5H162.469V35.3359C162.406 34.2344 162.109 33.3828 161.578 32.7812C161.047 32.1719 160.328 31.8672 159.422 31.8672ZM169.512 43H167.344V25H169.512V43ZM175.348 43H173.18V30.3203H175.348V43ZM173.004 26.957C173.004 26.6055 173.109 26.3086 173.32 26.0664C173.539 25.8242 173.859 25.7031 174.281 25.7031C174.703 25.7031 175.023 25.8242 175.242 26.0664C175.461 26.3086 175.57 26.6055 175.57 26.957C175.57 27.3086 175.461 27.6016 175.242 27.8359C175.023 28.0703 174.703 28.1875 174.281 28.1875C173.859 28.1875 173.539 28.0703 173.32 27.8359C173.109 27.6016 173.004 27.3086 173.004 26.957Z" fill="black"/>
<line x1="378" y1="19" x2="417" y2="19" stroke="black" stroke-width="4"/>
<line x1="378" y1="33" x2="417" y2="33" stroke="black" stroke-width="4"/>
<line x1="378" y1="47" x2="417" y2="47" stroke="black" stroke-width="4"/>
<circle cx="218" cy="200" r="95" fill="#1B0000"/>
<rect x="24" y="313" width="393" height="151" rx="5" fill="#7A4ADF"/>
<path d="M218.5 295L231.923 318.25H205.077L218.5 295Z" fill="#7A4ADF"/>
<path d="M48.1794 585L48.2274 570.576L43.5474 570.648V568.224H55.6674V570.648L50.9154 570.576L50.9874 585H48.1794ZM54.7059 585L59.2899 568.224H63.0339L67.6179 585H64.7379L63.7059 580.896H58.6179L57.5859 585H54.7059ZM59.1699 578.472H63.1539L61.2339 570.792H61.0659L59.1699 578.472ZM79.2371 585L72.7811 576.312L78.7811 568.224H82.1651L75.9011 576.144V576.288L82.6931 585H79.2371ZM69.9011 585L69.9731 576.48L69.9011 568.224H72.7091V585H69.9011ZM84.6902 585V568.224H93.7622V570.648L87.4982 570.6L87.3782 575.304H93.1622V577.656H87.3782L87.4982 582.624L93.7622 582.576V585H84.6902ZM106.13 585L106.202 578.856L101.258 568.224H104.282L107.474 576.312H107.618L110.81 568.224H113.834L108.89 578.856L108.962 585H106.13ZM121.389 585.336C120.477 585.336 119.621 585.208 118.821 584.952C118.037 584.696 117.333 584.248 116.709 583.608C116.101 582.968 115.621 582.08 115.269 580.944C114.933 579.808 114.765 578.352 114.765 576.576C114.765 574.816 114.933 573.376 115.269 572.256C115.621 571.12 116.101 570.24 116.709 569.616C117.333 568.976 118.037 568.536 118.821 568.296C119.621 568.04 120.477 567.912 121.389 567.912C122.285 567.912 123.133 568.04 123.933 568.296C124.733 568.536 125.437 568.976 126.045 569.616C126.653 570.24 127.133 571.12 127.485 572.256C127.837 573.376 128.013 574.816 128.013 576.576C128.013 578.352 127.837 579.808 127.485 580.944C127.133 582.08 126.653 582.968 126.045 583.608C125.437 584.248 124.733 584.696 123.933 584.952C123.133 585.208 122.285 585.336 121.389 585.336ZM121.389 582.84C122.029 582.84 122.581 582.768 123.045 582.624C123.509 582.464 123.885 582.176 124.173 581.76C124.477 581.344 124.701 580.728 124.845 579.912C124.989 579.08 125.061 577.992 125.061 576.648C125.061 575.288 124.989 574.2 124.845 573.384C124.717 572.552 124.501 571.928 124.197 571.512C123.909 571.08 123.533 570.792 123.069 570.648C122.605 570.488 122.045 570.408 121.389 570.408C120.733 570.408 120.173 570.488 119.709 570.648C119.245 570.792 118.861 571.08 118.557 571.512C118.269 571.928 118.053 572.552 117.909 573.384C117.765 574.2 117.693 575.288 117.693 576.648C117.693 577.992 117.765 579.08 117.909 579.912C118.053 580.728 118.277 581.352 118.581 581.784C118.885 582.2 119.269 582.48 119.733 582.624C120.197 582.768 120.749 582.84 121.389 582.84ZM137.632 585.336C136.384 585.336 135.32 585.112 134.44 584.664C133.576 584.216 132.912 583.44 132.448 582.336C132 581.216 131.776 579.664 131.776 577.68V568.224H134.584V577.008C134.584 578.304 134.624 579.344 134.704 580.128C134.8 580.896 134.96 581.48 135.184 581.88C135.408 582.264 135.72 582.52 136.12 582.648C136.52 582.776 137.024 582.84 137.632 582.84C138.256 582.824 138.768 582.752 139.168 582.624C139.584 582.496 139.896 582.24 140.104 581.856C140.328 581.472 140.488 580.896 140.584 580.128C140.68 579.36 140.728 578.32 140.728 577.008V568.224H143.512V577.464C143.512 579.528 143.28 581.128 142.816 582.264C142.368 583.4 141.704 584.2 140.824 584.664C139.96 585.112 138.896 585.336 137.632 585.336ZM148.065 585L148.185 577.128L148.089 568.248C148.233 568.232 148.521 568.208 148.953 568.176C149.385 568.144 149.881 568.112 150.441 568.08C151.017 568.032 151.609 567.992 152.217 567.96C152.825 567.928 153.377 567.912 153.873 567.912C155.057 567.912 156.081 568.088 156.945 568.44C157.809 568.792 158.473 569.368 158.937 570.168C159.417 570.952 159.657 571.992 159.657 573.288C159.657 574.664 159.361 575.76 158.769 576.576C158.177 577.392 157.313 577.96 156.177 578.28V578.4L159.897 585H156.729L153.537 578.664L150.897 578.568V585H148.065ZM154.041 576.384C155.129 576.384 155.849 576.136 156.201 575.64C156.553 575.144 156.729 574.36 156.729 573.288C156.729 572.392 156.657 571.728 156.513 571.296C156.369 570.864 156.177 570.576 155.937 570.432C155.601 570.224 154.985 570.12 154.089 570.12C153.433 570.12 152.825 570.144 152.265 570.192C151.721 570.24 151.265 570.288 150.897 570.336L150.873 576.168C151.385 576.232 151.913 576.288 152.457 576.336C153.017 576.368 153.545 576.384 154.041 576.384ZM175.717 585.336C174.805 585.336 173.949 585.208 173.149 584.952C172.365 584.696 171.661 584.248 171.037 583.608C170.429 582.968 169.949 582.08 169.597 580.944C169.261 579.808 169.093 578.352 169.093 576.576C169.093 574.816 169.261 573.376 169.597 572.256C169.949 571.12 170.429 570.24 171.037 569.616C171.661 568.976 172.365 568.536 173.149 568.296C173.949 568.04 174.805 567.912 175.717 567.912C176.613 567.912 177.461 568.04 178.261 568.296C179.061 568.536 179.765 568.976 180.373 569.616C180.981 570.24 181.461 571.12 181.813 572.256C182.165 573.376 182.341 574.816 182.341 576.576C182.341 578.352 182.165 579.808 181.813 580.944C181.461 582.08 180.981 582.968 180.373 583.608C179.765 584.248 179.061 584.696 178.261 584.952C177.461 585.208 176.613 585.336 175.717 585.336ZM175.717 582.84C176.357 582.84 176.909 582.768 177.373 582.624C177.837 582.464 178.213 582.176 178.501 581.76C178.805 581.344 179.029 580.728 179.173 579.912C179.317 579.08 179.389 577.992 179.389 576.648C179.389 575.288 179.317 574.2 179.173 573.384C179.045 572.552 178.829 571.928 178.525 571.512C178.237 571.08 177.861 570.792 177.397 570.648C176.933 570.488 176.373 570.408 175.717 570.408C175.061 570.408 174.501 570.488 174.037 570.648C173.573 570.792 173.189 571.08 172.885 571.512C172.597 571.928 172.381 572.552 172.237 573.384C172.093 574.2 172.021 575.288 172.021 576.648C172.021 577.992 172.093 579.08 172.237 579.912C172.381 580.728 172.605 581.352 172.909 581.784C173.213 582.2 173.597 582.48 174.061 582.624C174.525 582.768 175.077 582.84 175.717 582.84ZM186.996 585L184.188 568.224H187.044L188.868 582.288H189.036L191.34 572.184H194.916L197.22 582.288H197.364L199.212 568.224H202.044L199.284 585H195.54L193.188 574.776H193.044L190.692 585H186.996ZM204.878 585V568.224H208.55L214.622 581.616H214.718L214.382 568.224H217.046V585H213.374L207.326 571.608H207.206L207.542 585H204.878Z" fill="black"/>
<path d="M162.146 637L154.658 592.264H162.274L167.138 629.768H167.586L173.73 602.824H183.266L189.41 629.768H189.794L194.722 592.264H202.274L194.914 637H184.93L178.658 609.736H178.274L172.002 637H162.146ZM208.705 637V592.264H232.897V598.728L216.193 598.6L215.873 611.144H231.297V617.416H215.873L216.193 630.664L232.897 630.536V637H208.705ZM257.873 637.896C256.252 637.896 254.566 637.832 252.817 637.704C251.11 637.576 249.51 637.427 248.017 637.256C246.524 637.128 245.286 637.021 244.305 636.936C243.366 636.808 242.876 636.723 242.833 636.68L243.025 616.136L242.705 592.264C242.79 592.264 243.302 592.221 244.241 592.136C245.222 592.051 246.438 591.965 247.889 591.88C249.382 591.752 250.961 591.645 252.625 591.56C254.332 591.475 255.932 591.432 257.425 591.432C259.985 591.432 262.31 591.816 264.401 592.584C266.492 593.309 268.134 594.568 269.329 596.36C270.566 598.109 271.185 600.563 271.185 603.72C271.185 605.981 270.801 607.795 270.033 609.16C269.308 610.483 268.454 611.485 267.473 612.168C266.492 612.808 265.638 613.256 264.913 613.512V613.64C265.98 613.939 267.089 614.451 268.241 615.176C269.393 615.859 270.353 616.883 271.121 618.248C271.932 619.571 272.337 621.363 272.337 623.624C272.337 626.483 271.932 628.851 271.121 630.728C270.31 632.563 269.201 634.013 267.793 635.08C266.428 636.104 264.892 636.829 263.185 637.256C261.478 637.683 259.708 637.896 257.873 637.896ZM257.681 610.888C259.985 610.888 261.542 610.355 262.353 609.288C263.164 608.221 263.569 606.472 263.569 604.04C263.569 601.437 263.078 599.645 262.097 598.664C261.116 597.64 259.494 597.128 257.233 597.128C255.654 597.128 254.289 597.171 253.137 597.256C251.985 597.341 251.004 597.427 250.193 597.512V610.824L257.681 610.888ZM258.321 631.944C260.881 631.944 262.545 631.283 263.313 629.96C264.124 628.637 264.529 626.611 264.529 623.88C264.529 621.107 263.868 619.208 262.545 618.184C261.265 617.16 259.473 616.648 257.169 616.648H250.257L250.321 631.432C250.918 631.517 251.942 631.624 253.393 631.752C254.886 631.88 256.529 631.944 258.321 631.944ZM293.703 637.896C291.825 637.896 290.012 637.683 288.263 637.256C286.556 636.829 285.02 636.36 283.655 635.848C282.289 635.336 281.223 634.867 280.455 634.44C279.687 634.013 279.303 633.8 279.303 633.8C279.303 633.8 279.409 633.501 279.623 632.904C279.836 632.307 280.071 631.624 280.327 630.856C280.625 630.088 280.881 629.405 281.095 628.808C281.351 628.211 281.479 627.912 281.479 627.912C281.479 627.912 281.863 628.083 282.631 628.424C283.399 628.765 284.423 629.171 285.703 629.64C287.025 630.067 288.497 630.451 290.119 630.792C291.74 631.091 293.361 631.24 294.983 631.24C295.921 631.24 296.668 631.155 297.223 630.984C297.82 630.813 298.247 630.643 298.503 630.472C299.143 630.045 299.655 629.405 300.039 628.552C300.423 627.656 300.615 626.483 300.615 625.032C300.615 623.667 300.231 622.536 299.463 621.64C298.737 620.701 297.756 619.891 296.519 619.208C295.281 618.525 293.937 617.864 292.487 617.224C290.951 616.499 289.457 615.795 288.007 615.112C286.556 614.387 285.255 613.555 284.103 612.616C282.993 611.635 282.119 610.419 281.479 608.968C280.839 607.517 280.519 605.725 280.519 603.592C280.519 601.331 281.052 599.283 282.119 597.448C283.185 595.613 284.785 594.163 286.919 593.096C289.052 591.987 291.697 591.432 294.855 591.432C296.817 591.432 298.695 591.581 300.487 591.88C302.279 592.136 303.751 592.413 304.903 592.712C306.055 593.011 306.631 593.16 306.631 593.16L305.415 599.304C305.415 599.304 304.796 599.197 303.559 598.984C302.364 598.771 300.849 598.557 299.015 598.344C297.223 598.088 295.452 597.96 293.703 597.96C292.721 597.96 291.953 598.024 291.399 598.152C290.887 598.28 290.417 598.472 289.991 598.728C289.521 599.027 289.095 599.539 288.711 600.264C288.327 600.947 288.135 601.949 288.135 603.272C288.135 604.637 288.519 605.768 289.287 606.664C290.055 607.56 291.057 608.328 292.295 608.968C293.575 609.608 294.94 610.227 296.391 610.824C297.713 611.421 299.079 612.061 300.487 612.744C301.895 613.427 303.175 614.259 304.327 615.24C305.521 616.221 306.481 617.459 307.207 618.952C307.932 620.445 308.295 622.28 308.295 624.456C308.295 627.144 307.676 629.491 306.439 631.496C305.244 633.501 303.537 635.08 301.319 636.232C299.143 637.341 296.604 637.896 293.703 637.896ZM317.58 637.064L317.836 616.456L317.58 592.264H325.132L324.876 612.104L325.132 637L317.58 637.064ZM343.156 637L343.284 598.536L330.803 598.728V592.264H363.124V598.728L350.452 598.536L350.644 637H343.156ZM368.83 637V592.264H393.022V598.728L376.318 598.6L375.998 611.144H391.422V617.416H375.998L376.318 630.664L393.022 630.536V637H368.83Z" fill="#4CDCE6"/>
<path d="M113.395 919.718C111.976 919.718 110.829 918.748 110.829 917.551V828.728C110.829 827.531 111.976 826.564 113.395 826.564C114.811 826.564 115.957 827.531 115.957 828.728V917.551C115.957 918.748 114.811 919.718 113.395 919.718Z" fill="#E5681A"/>
<path d="M221.124 919.718C219.705 919.718 218.558 918.748 218.558 917.551V826.564C218.558 825.364 219.705 824.397 221.124 824.397C222.54 824.397 223.687 825.364 223.687 826.564V917.551C223.687 918.748 222.54 919.718 221.124 919.718Z" fill="#E5681A"/>
<path d="M326.287 919.718C324.868 919.718 323.722 918.748 323.722 917.551V828.728C323.722 827.531 324.868 826.564 326.287 826.564C327.706 826.564 328.853 827.531 328.853 828.728V917.551C328.853 918.748 327.706 919.718 326.287 919.718Z" fill="#F8C010"/>
<path d="M251.903 919.718L236.512 911.053L199.996 849.368C195.654 842.029 186.772 837.394 177.056 837.394H95.438V841.728C95.438 853.691 106.922 863.392 121.089 863.392H177.519L205.733 911.053V919.718H251.903Z" fill="#273F86"/>
<path d="M218.558 690.078H177.519V668.413H218.558V690.078Z" fill="#8B98D5"/>
<path d="M280.117 820.063H208.299L228.818 772.403H300.636L280.117 820.063Z" fill="#8B98D5"/>
<path d="M274.989 820.063H213.427L231.384 776.737H292.942L274.989 820.063Z" fill="#4E61B6"/>
<path d="M140.426 761.343L133.124 780.892L118.449 776.983L128.258 750.716L140.426 761.343Z" fill="#F89DD2"/>
<path d="M131.349 876.389H95.438V863.392H131.349V876.389Z" fill="#F39710"/>
<path d="M131.349 863.392H187.779V876.389H131.349V863.392Z" fill="#F8C010"/>
<path d="M141.608 913.22C140.19 913.22 139.043 912.25 139.043 911.053V876.389C139.043 875.192 140.19 874.225 141.608 874.225C143.027 874.225 144.174 875.192 144.174 876.389V911.053C144.174 912.25 143.027 913.22 141.608 913.22Z" fill="#F8C010"/>
<path d="M95.4411 913.22C95.2338 913.22 95.0265 913.201 94.8191 913.157C93.4423 912.866 92.6065 911.688 92.9531 910.527C94.7478 904.459 101.175 900.221 108.581 900.221H174.639C182.045 900.221 188.469 904.459 190.267 910.527C190.61 911.688 189.775 912.864 188.401 913.154C187.024 913.444 185.634 912.738 185.291 911.579C184.066 907.442 179.686 904.555 174.639 904.555H108.581C103.534 904.555 99.1504 907.442 97.9259 911.579C97.6343 912.562 96.5879 913.22 95.4411 913.22Z" fill="#F8C010"/>
<path d="M136.513 914.888C136.837 912.51 139.383 910.806 142.198 911.08C145.01 911.354 147.028 913.505 146.704 915.88C146.38 918.258 143.834 919.965 141.019 919.688C138.207 919.417 136.189 917.266 136.513 914.888Z" fill="#F39710"/>
<path d="M90.342 914.888C90.666 912.51 93.2123 910.806 96.0275 911.08C98.8394 911.354 100.861 913.505 100.537 915.88C100.21 918.258 97.6667 919.965 94.8515 919.688C92.0363 919.417 90.018 917.266 90.342 914.888Z" fill="#F39710"/>
<path d="M182.647 915.387C182.647 912.992 184.944 911.053 187.779 911.053C190.61 911.053 192.907 912.992 192.907 915.387C192.907 917.779 190.61 919.718 187.779 919.718C184.944 919.718 182.647 917.779 182.647 915.387Z" fill="#F39710"/>
<path d="M133.915 876.389H149.303V889.388H133.915V876.389Z" fill="#F39710"/>
<path d="M113.395 865.559C96.4197 865.559 82.6125 853.897 82.6125 839.561V820.063C82.6125 818.866 83.7626 817.896 85.1783 817.896C86.5972 817.896 87.744 818.866 87.744 820.063V839.561C87.744 851.505 99.251 861.225 113.395 861.225C114.811 861.225 115.958 862.195 115.958 863.392C115.958 864.589 114.811 865.559 113.395 865.559Z" fill="#F39710"/>
<path d="M336.547 828.728H121.089V820.063H336.547V828.728Z" fill="#F8C010"/>
<path d="M213.427 828.728H105.698V820.063H213.427V828.728Z" fill="#F39710"/>
<path d="M228.818 668.413H367.326V750.738H228.818V668.413Z" fill="#4E61B6"/>
<path d="M177.519 733.407H300.636V759.403H177.519V733.407Z" fill="#8B98D5"/>
<path d="M74.9185 668.413H162.128V711.743H74.9185V668.413Z" fill="#8B98D5"/>
<path d="M310.896 759.403H367.327V798.398H310.896V759.403Z" fill="#8B98D5"/>
<path d="M136.48 837.394H95.438L103.054 779.52C104.36 769.6 116.754 763.647 127.513 767.781C146.954 775.241 156.145 794.21 148.48 811.042L136.48 837.394Z" fill="#3DBC89"/>
<path d="M283.927 895.415L219.303 845.837C212.222 840.404 202.999 837.394 193.432 837.394H95.438V841.728C95.438 853.691 106.922 863.392 121.089 863.392H198.039L270.369 920.356L302.065 892.352L283.927 895.415Z" fill="#2E4FA9"/>
<path d="M144.735 784.259L127.993 799.483L109.951 786.155C104.522 782.134 104.25 775.074 109.368 770.767C111.795 768.729 114.976 767.701 118.16 767.701C121.144 767.701 124.125 768.6 126.506 770.403L144.735 784.259Z" fill="#3DBC89"/>
<path d="M126.02 800.19C125.417 800.19 124.814 800.015 124.328 799.656L108.263 787.783C105.289 785.585 103.485 782.542 103.18 779.216C103.067 778.024 104.126 776.98 105.539 776.887C106.945 776.791 108.182 777.687 108.292 778.882C108.493 781.071 109.686 783.076 111.642 784.525L127.707 796.393C128.773 797.182 128.88 798.552 127.947 799.45C127.442 799.941 126.732 800.19 126.02 800.19Z" fill="#2E9470"/>
<path d="M142.878 785.013C142.266 785.013 141.654 784.832 141.161 784.459L124.789 772.016C123.733 771.214 123.648 769.844 124.594 768.956C125.543 768.066 127.166 767.995 128.216 768.792L144.595 781.238C145.645 782.038 145.733 783.407 144.783 784.298C144.278 784.772 143.581 785.013 142.878 785.013Z" fill="#2E9470"/>
<path d="M331.416 768.069L351.939 778.901L331.416 789.733V768.069Z" fill="#EF2D49"/>
<path d="M357.067 724.742H274.989V690.078H357.067V724.742Z" fill="#4356AF"/>
<path d="M115.958 690.078C115.958 697.256 109.067 703.077 100.569 703.077C92.0688 703.077 85.1782 697.256 85.1782 690.078C85.1782 682.9 92.0688 677.081 100.569 677.081V690.078H115.958Z" fill="#EF2D49"/>
<path d="M300.636 718.241C299.982 718.241 299.324 718.03 298.825 717.608C297.821 716.762 297.821 715.389 298.825 714.543L314.213 701.546C315.215 700.699 316.838 700.699 317.842 701.546L325.889 708.343L334.412 697.543C335.128 696.634 336.537 696.319 337.694 696.806L347.954 701.14C349.22 701.675 349.736 702.976 349.101 704.047C348.469 705.116 346.927 705.551 345.66 705.014L337.425 701.538L328.422 712.945C327.995 713.485 327.305 713.836 326.54 713.899C325.776 713.964 325.017 713.734 324.473 713.274L316.028 706.14L302.451 717.608C301.948 718.03 301.294 718.241 300.636 718.241Z" fill="#4E61B6"/>
<path d="M177.519 698.743H300.636V724.742H177.519V698.743Z" fill="#8B98D5"/>
<path d="M201.246 718.241H185.213V705.244H201.246V718.241Z" fill="#4E61B6"/>
<path d="M200.605 752.905H185.213V739.906H200.605V752.905Z" fill="#4E61B6"/>
<path d="M141.609 679.246H126.217C124.802 679.246 123.655 678.279 123.655 677.081C123.655 675.882 124.802 674.914 126.217 674.914H141.609C143.027 674.914 144.174 675.882 144.174 677.081C144.174 678.279 143.027 679.246 141.609 679.246Z" fill="#6778C4"/>
<path d="M151.868 687.911H126.217C124.802 687.911 123.655 686.944 123.655 685.747C123.655 684.55 124.802 683.58 126.217 683.58H151.868C153.287 683.58 154.434 684.55 154.434 685.747C154.434 686.944 153.287 687.911 151.868 687.911Z" fill="#6778C4"/>
<path d="M141.609 696.579H126.217C124.802 696.579 123.655 695.609 123.655 694.412C123.655 693.215 124.802 692.245 126.217 692.245H141.609C143.027 692.245 144.174 693.215 144.174 694.412C144.174 695.609 143.027 696.579 141.609 696.579Z" fill="#6778C4"/>
<path d="M151.868 705.244H126.217C124.802 705.244 123.655 704.275 123.655 703.077C123.655 701.88 124.802 700.91 126.217 700.91H151.868C153.287 700.91 154.434 701.88 154.434 703.077C154.434 704.275 153.287 705.244 151.868 705.244Z" fill="#6778C4"/>
<path d="M346.807 718.241H341.679C340.26 718.241 339.113 717.274 339.113 716.077C339.113 714.879 340.26 713.91 341.679 713.91H346.807C348.226 713.91 349.373 714.879 349.373 716.077C349.373 717.274 348.226 718.241 346.807 718.241Z" fill="#4E61B6"/>
<path d="M189.062 681.413H186.496C185.077 681.413 183.93 680.443 183.93 679.246C183.93 678.049 185.077 677.081 186.496 677.081H189.062C190.478 677.081 191.624 678.049 191.624 679.246C191.624 680.443 190.478 681.413 189.062 681.413Z" fill="#6778C4"/>
<path d="M199.322 681.413H196.756C195.337 681.413 194.19 680.443 194.19 679.246C194.19 678.049 195.337 677.081 196.756 677.081H199.322C200.737 677.081 201.884 678.049 201.884 679.246C201.884 680.443 200.737 681.413 199.322 681.413Z" fill="#6778C4"/>
<path d="M209.581 681.413H207.016C205.597 681.413 204.45 680.443 204.45 679.246C204.45 678.049 205.597 677.081 207.016 677.081H209.581C210.997 677.081 212.147 678.049 212.147 679.246C212.147 680.443 210.997 681.413 209.581 681.413Z" fill="#6778C4"/>
<path d="M177.519 811.398H283.966V820.063H177.519V811.398Z" fill="#4356AF"/>
<path d="M95.4381 820.063H69.7903V785.402H95.4381V820.063Z" fill="#F39710"/>
<path d="M95.438 785.402H105.698V820.063H95.438V785.402Z" fill="#F8C010"/>
<path d="M245.981 811.398H225.462L174.38 819.696C164.528 821.293 154.359 818.97 146.811 813.389L127.992 799.483L144.735 784.259L169.031 802.732L220.23 798.798C223.69 798.535 227.185 798.763 230.558 799.475L236.026 800.631C241.877 801.864 245.981 806.308 245.981 811.398Z" fill="#F89DD2"/>
<path d="M367.326 681.413H228.818V668.413H367.326V681.413Z" fill="#6778C4"/>
<path d="M274.989 709.576H208.299C206.88 709.576 205.733 708.609 205.733 707.409C205.733 706.211 206.88 705.244 208.299 705.244H274.989C276.404 705.244 277.551 706.211 277.551 707.409C277.551 708.609 276.404 709.576 274.989 709.576Z" fill="#6778C4"/>
<path d="M290.377 718.241H208.299C206.88 718.241 205.733 717.274 205.733 716.077C205.733 714.879 206.88 713.91 208.299 713.91H290.377C291.796 713.91 292.942 714.879 292.942 716.077C292.942 717.274 291.796 718.241 290.377 718.241Z" fill="#6778C4"/>
<path d="M244.209 744.24H208.299C206.88 744.24 205.733 743.27 205.733 742.073C205.733 740.875 206.88 739.906 208.299 739.906H244.209C245.625 739.906 246.772 740.875 246.772 742.073C246.772 743.27 245.625 744.24 244.209 744.24Z" fill="#6778C4"/>
<path d="M280.117 744.24H254.469C253.05 744.24 251.903 743.27 251.903 742.073C251.903 740.875 253.05 739.906 254.469 739.906H280.117C281.536 739.906 282.683 740.875 282.683 742.073C282.683 743.27 281.536 744.24 280.117 744.24Z" fill="#6778C4"/>
<path d="M290.377 752.905H208.299C206.88 752.905 205.733 751.935 205.733 750.738C205.733 749.541 206.88 748.571 208.299 748.571H290.377C291.796 748.571 292.942 749.541 292.942 750.738C292.942 751.935 291.796 752.905 290.377 752.905Z" fill="#6778C4"/>
<path d="M264.729 692.245H239.078C237.659 692.245 236.512 691.275 236.512 690.078C236.512 688.881 237.659 687.911 239.078 687.911H264.729C266.145 687.911 267.291 688.881 267.291 690.078C267.291 691.275 266.145 692.245 264.729 692.245Z" fill="#6778C4"/>
<path d="M331.416 735.574H310.896C309.481 735.574 308.334 734.604 308.334 733.407C308.334 732.21 309.481 731.24 310.896 731.24H331.416C332.835 731.24 333.982 732.21 333.982 733.407C333.982 734.604 332.835 735.574 331.416 735.574Z" fill="#4356AF"/>
<path d="M357.067 735.574H341.679C340.26 735.574 339.113 734.604 339.113 733.407C339.113 732.21 340.26 731.24 341.679 731.24H357.067C358.486 731.24 359.632 732.21 359.632 733.407C359.632 734.604 358.486 735.574 357.067 735.574Z" fill="#4356AF"/>
<path d="M357.067 744.24H310.896C309.481 744.24 308.334 743.27 308.334 742.073C308.334 740.875 309.481 739.906 310.896 739.906H357.067C358.486 739.906 359.633 740.875 359.633 742.073C359.633 743.27 358.486 744.24 357.067 744.24Z" fill="#4356AF"/>
<path d="M137.345 769.592C132.648 767.132 130.526 762.296 132.178 757.842L134.177 752.453L140.426 761.343L137.345 769.592Z" fill="#E8509A"/>
<path d="M137.261 766.112L136.072 765.795C129.321 763.995 125.569 757.913 127.701 752.206L133.137 737.648L152.707 742.864L145.353 762.554C144.281 765.425 140.659 767.017 137.261 766.112Z" fill="#F89DD2"/>
<path d="M123.587 748.82L127.079 739.467C128.252 736.336 131.41 734.032 135.252 733.514C138.44 733.084 141.68 733.95 143.999 735.846L145.548 737.111C147.524 738.728 149.937 739.914 152.578 740.563L159.562 742.289L157.917 746.705C156.685 749.998 152.574 751.864 148.645 750.916C147.657 750.678 146.733 750.269 145.937 749.719L136.458 743.163C135.097 746.807 130.976 749.198 126.46 748.968L123.587 748.82Z" fill="#273F86"/>
<path d="M123.587 748.82C124.439 746.538 127.322 745.272 130.021 745.99C132.722 746.713 134.226 749.146 133.37 751.428C132.518 753.708 129.638 754.976 126.936 754.256C124.231 753.535 122.735 751.102 123.587 748.82Z" fill="#F89DD2"/>
<path d="M205.733 919.718C204.314 919.718 203.167 918.748 203.167 917.551V828.728C203.167 827.531 204.314 826.564 205.733 826.564C207.152 826.564 208.298 827.531 208.298 828.728V917.551C208.298 918.748 207.152 919.718 205.733 919.718Z" fill="#F39710"/>
<rect x="154" y="489" width="128" height="51" rx="6" fill="white" stroke="black" stroke-width="4"/>
<path d="M194.077 523V506.224H196.885L196.813 513.256H203.173L203.125 506.224H205.909V523H203.125L203.173 515.68H196.813L196.885 523H194.077ZM210.46 523.024L210.556 515.296L210.46 506.224H213.292L213.196 513.664L213.292 523L210.46 523.024ZM217.843 523L217.963 515.128L217.867 506.248C218.011 506.232 218.299 506.208 218.73 506.176C219.163 506.144 219.659 506.112 220.219 506.08C220.795 506.032 221.387 505.992 221.995 505.96C222.603 505.928 223.155 505.912 223.651 505.912C224.835 505.912 225.859 506.088 226.723 506.44C227.587 506.792 228.251 507.368 228.715 508.168C229.195 508.952 229.435 509.992 229.435 511.288C229.435 512.664 229.139 513.76 228.547 514.576C227.955 515.392 227.091 515.96 225.955 516.28V516.4L229.674 523H226.507L223.315 516.664L220.675 516.568V523H217.843ZM223.819 514.384C224.907 514.384 225.627 514.136 225.979 513.64C226.331 513.144 226.507 512.36 226.507 511.288C226.507 510.392 226.435 509.728 226.291 509.296C226.147 508.864 225.955 508.576 225.715 508.432C225.379 508.224 224.763 508.12 223.867 508.12C223.211 508.12 222.603 508.144 222.043 508.192C221.499 508.24 221.043 508.288 220.675 508.336L220.651 514.168C221.163 514.232 221.691 514.288 222.235 514.336C222.795 514.368 223.323 514.384 223.819 514.384ZM233.733 523V506.224H242.805V508.648L236.541 508.6L236.421 513.304H242.205V515.656H236.421L236.541 520.624L242.805 520.576V523H233.733Z" fill="black"/>
<defs>
<filter id="filter0_d_0_1" x="0" y="0" width="436" height="72" filterUnits="userSpaceOnUse" color-interpolation-filters="sRGB">
<feFlood flood-opacity="0" result="BackgroundImageFix"/>
<feColorMatrix in="SourceAlpha" type="matrix" values="0 0 0 0 0 0 0 0 0 0 0 0 0 0 0 0 0 0 127 0" result="hardAlpha"/>
<feOffset dy="4"/>
<feGaussianBlur stdDeviation="2"/>
<feComposite in2="hardAlpha" operator="out"/>
<feColorMatrix type="matrix" values="0 0 0 0 0 0 0 0 0 0 0 0 0 0 0 0 0 0 0.25 0"/>
<feBlend mode="normal" in2="BackgroundImageFix" result="effect1_dropShadow_0_1"/>
<feBlend mode="normal" in="SourceGraphic" in2="effect1_dropShadow_0_1" result="shape"/>
</filter>
</defs>
</svg>
